<?xml version="1.0" encoding="UTF-8"?>
<svg version="1.1" xmlns="http://www.w3.org/2000/svg" width="1000" height="461">
<path d="M0 0 C3.03895875 1.30792005 5.94500152 2.79852939 8.88305664 4.3190918 C19.95878613 10.18337671 19.95878613 10.18337671 32.0546875 9.94921875 C35.6830734 8.61829886 39.03439252 6.95118334 42.44140625 5.13671875 C46.97573395 2.74532674 50.9355443 2.18711038 56 3 C59.87324087 4.33265185 62.45067752 6.03822444 64.52661133 9.67285156 C66.11561595 13.2610794 67.44252639 16.89617507 68.69921875 20.609375 C71.83298641 29.66654134 75.26751955 38.59354793 78.74902344 47.52175903 C80.60638089 52.2866207 82.45410356 57.05520956 84.30078125 61.82421875 C84.68279694 62.81074936 85.06481262 63.79727997 85.45840454 64.81370544 C89.86370463 76.20795024 94.18700157 87.63305997 98.5 99.0625 C98.87275055 100.04955933 99.2455011 101.03661865 99.62954712 102.05358887 C100.68103242 104.83876638 101.73145625 107.62434076 102.78125 110.41015625 C103.09398361 111.2393306 103.40671722 112.06850494 103.72892761 112.92280579 C104.01496353 113.68312607 104.30099945 114.44344635 104.59570312 115.22680664 C104.84421021 115.88685196 105.09271729 116.54689728 105.34875488 117.22694397 C107.68969326 123.60029679 108.5160906 129.69022476 105.61328125 136.02734375 C101.01054851 143.46559948 96.20422102 147.58839154 88.36474609 151.49584961 C87.71844238 151.82002365 87.07213867 152.14419769 86.40625 152.47819519 C84.28149846 153.54206738 82.15258835 154.59730731 80.0234375 155.65234375 C78.53212501 156.39646868 77.04105013 157.14106998 75.55020142 157.88612366 C72.42671609 159.44556877 69.30131372 161.0010762 66.17431641 162.5534668 C62.19438017 164.5293583 58.21789783 166.51207579 54.2426815 168.4974432 C50.42085292 170.40575912 46.59716867 172.31034384 42.7734375 174.21484375 C41.69933184 174.75048604 41.69933184 174.75048604 40.60352707 175.29694939 C33.20893035 178.98171428 25.80422849 182.61666282 18.25721741 185.98272705 C16.09922978 186.95527955 13.97137785 187.97461463 11.84765625 189.01953125 C4.01590982 192.7860361 -3.12595331 195.89119028 -12 194 C-19.67884663 190.83359747 -24.86989551 184.89259962 -28.51757812 177.56420898 C-28.83214462 176.93901871 -29.14671112 176.31382843 -29.47080994 175.66969299 C-30.50072109 173.61654197 -31.51615643 171.55660558 -32.53125 169.49609375 C-33.25123229 168.05187129 -33.97198962 166.60803497 -34.69348145 165.16456604 C-36.20236721 162.14064048 -37.70460203 159.11353829 -39.20166016 156.08374023 C-41.10506878 152.23188089 -43.02045062 148.38614353 -44.9404068 144.54251003 C-46.42977265 141.55930981 -47.91476421 138.57394987 -49.39830017 135.58784676 C-50.10227811 134.17110909 -50.80705887 132.75477002 -51.51271057 131.33886528 C-55.20605871 123.91789775 -58.70092538 116.47616855 -61.82519531 108.79289246 C-63.76054564 104.1919359 -66.00744837 99.75774476 -68.265625 95.30859375 C-68.74449158 94.35606216 -69.22335815 93.40353058 -69.71673584 92.4221344 C-71.22395511 89.4252886 -72.73658013 86.43121856 -74.25 83.4375 C-75.77694358 80.41127487 -77.30268282 77.38445705 -78.82611084 74.35646057 C-79.76875884 72.48338482 -80.71354358 70.61138253 -81.66070557 68.74058533 C-82.08494812 67.89863113 -82.50919067 67.05667694 -82.94628906 66.18920898 C-83.31981506 65.45041 -83.69334106 64.71161102 -84.07818604 63.95042419 C-86.88115051 58.01975928 -87.08841549 50.95370204 -85.3515625 44.64453125 C-81.69636344 36.5687282 -75.21510515 32.80508976 -67.32568359 29.46704102 C-63.71835631 27.87576003 -60.20275812 26.13352415 -56.6875 24.3515625 C-50.96929771 21.47262716 -45.23179314 18.6393921 -39.46484375 15.859375 C-38.76218887 15.52034149 -38.059534 15.18130798 -37.33558655 14.83200073 C-34.47405898 13.45219622 -31.61179121 12.07394854 -28.74829102 10.69824219 C-26.61106265 9.67084342 -24.47536717 8.64031193 -22.33984375 7.609375 C-21.7043309 7.30513611 -21.06881805 7.00089722 -20.41404724 6.68743896 C-17.28830764 5.1761833 -14.255384 3.58288723 -11.27099609 1.81347656 C-7.2918959 -0.39258078 -4.38295177 -0.99412933 0 0 Z M-15.50390625 15.140625 C-16.14182602 15.46407898 -16.77974579 15.78753296 -17.43699646 16.12078857 C-19.48177525 17.15819054 -21.52243764 18.20335722 -23.5625 19.25 C-38.83817073 27.07058506 -38.83817073 27.07058506 -46.77172852 30.10058594 C-50.55348269 31.62704396 -54.10740616 33.5556673 -57.6875 35.5 C-58.39455078 35.87769531 -59.10160156 36.25539063 -59.83007812 36.64453125 C-61.89336981 37.75129232 -63.9480627 38.87234751 -66 40 C-66.99422974 40.54092285 -66.99422974 40.54092285 -68.00854492 41.09277344 C-71.96846635 43.28835318 -74.33060571 44.67921478 -76 49 C-76.4368249 54.96578008 -75.632329 58.75977198 -72.6875 64 C-71.94751254 65.39355302 -71.21212664 66.78955572 -70.48046875 68.1875 C-70.08134277 68.94804688 -69.6822168 69.70859375 -69.27099609 70.4921875 C-66.38390578 76.18872835 -63.82704677 82.04710123 -61.2097168 87.87109375 C-58.35560154 94.17484484 -55.34109682 100.37832872 -52.22973633 106.55749512 C-49.56052103 111.86266156 -46.94068069 117.1903473 -44.34375 122.53125 C-43.94748413 123.34601807 -43.55121826 124.16078613 -43.14294434 125.00024414 C-41.52150501 128.3360851 -39.90165759 131.67269805 -38.28173828 135.00927734 C-37.07397852 137.496127 -35.86539612 139.98257414 -34.65625 142.46875 C-34.26525116 143.27298401 -33.87425232 144.07721802 -33.47140503 144.90582275 C-30.57502786 150.85073597 -27.6315881 156.77099229 -24.63562012 162.66638184 C-22.54723832 166.80272155 -20.68230663 170.98641199 -18.875 175.25 C-16.67336496 180.013323 -15.14200511 183.08435104 -10 185 C-0.85354591 186.24172341 5.99422682 182.08040973 13.87890625 178 C15.30014302 177.28097671 16.72219015 176.56355318 18.14500427 175.84765625 C21.86687872 173.96963168 25.57742411 172.07023415 29.28594971 170.16601562 C33.08045377 168.22252637 36.88537975 166.299671 40.68945312 164.375 C48.13659539 160.60333369 55.57188436 156.80900057 63 153 C58.97234578 151.65744859 56.21334897 152.92212476 52.32421875 154.16796875 C51.56260941 154.4040535 50.80100006 154.64013824 50.01631165 154.88337708 C47.57072476 155.64320936 45.12908445 156.41491378 42.6875 157.1875 C39.50479547 158.18384448 36.32077389 159.17595002 33.13671875 160.16796875 C32.36018951 160.41037796 31.58366028 160.65278717 30.78359985 160.90254211 C3.06429057 169.53214529 3.06429057 169.53214529 -11.25 162.375 C-24.48856049 150.94169776 -28.91230156 128.67149698 -34.578125 112.7734375 C-36.97080954 106.06403367 -39.40458641 99.37005642 -41.85516357 92.68164062 C-42.55801986 90.76223465 -43.25875857 88.84206388 -43.95947266 86.921875 C-46.06778023 81.15877663 -48.21092013 75.41435845 -50.4765625 69.7109375 C-50.85224365 68.75864258 -51.2279248 67.80634766 -51.61499023 66.82519531 C-52.30295735 65.09314062 -53.00204174 63.36543662 -53.71508789 61.64355469 C-55.93601492 56.0450536 -57.31447186 50.85491113 -55.28930664 44.91577148 C-53.55218197 42.33459041 -51.92558287 41.7895954 -49.0390625 40.66796875 C-48.01925293 40.26521729 -46.99944336 39.86246582 -45.94873047 39.44750977 C-44.85189941 39.03170654 -43.75506836 38.61590332 -42.625 38.1875 C-40.94688232 37.53382446 -40.94688232 37.53382446 -39.23486328 36.86694336 C-31.36820556 33.82854318 -23.4473497 30.94867335 -15.45947266 28.24487305 C-10.8685001 26.68980278 -6.430626 24.9685142 -2 23 C-2.47730838 21.5410574 -2.95691042 20.08286504 -3.4375 18.625 C-3.70433594 17.81289063 -3.97117187 17.00078125 -4.24609375 16.1640625 C-4.95179729 13.98968201 -4.95179729 13.98968201 -6 12 C-9.76254346 12 -12.24612306 13.45357169 -15.50390625 15.140625 Z M6 15 C6.66 16.32 7.32 17.64 8 19 C8.99 18.67 9.98 18.34 11 18 C11 17.34 11 16.68 11 16 C9.35 15.67 7.7 15.34 6 15 Z " fill="#16A149" transform="translate(684,43)"/>
<path d="M0 0 C13.53 0 27.06 0 41 0 C41.05607422 9.86132812 41.05607422 9.86132812 41.11328125 19.921875 C41.14358406 24.10549415 41.17474709 28.28907195 41.20898438 32.47265625 C41.26315614 39.10202869 41.31427188 45.73131933 41.34643555 52.36083984 C41.37258878 57.71022535 41.41307519 63.05933364 41.46318626 68.40854645 C41.47977404 70.44166852 41.49133837 72.47483844 41.49761391 74.50801849 C41.29108408 93.60619237 41.29108408 93.60619237 48.375 111 C48.93960938 111.86625 49.50421875 112.7325 50.0859375 113.625 C55.71144895 120.60522645 62.62458952 122.91547467 71.25 123.875 C80.11898807 124.37973916 89.09032854 122.92257554 96 117 C101.9956738 111.20115388 106.55259641 103.47583622 107.1386652 94.99292374 C107.14511775 94.28129955 107.1515703 93.56967537 107.15821838 92.83648682 C107.1680072 92.01481522 107.17779602 91.19314362 107.18788147 90.34657288 C107.19363693 89.45393234 107.1993924 88.56129181 107.20532227 87.64160156 C107.21522186 86.69492111 107.22512146 85.74824066 107.23532104 84.77287292 C107.26689454 81.64548234 107.29167714 78.51807657 107.31640625 75.390625 C107.33697935 73.22157396 107.35797592 71.05252689 107.37937927 68.88348389 C107.4345631 63.17563092 107.48398869 57.46774199 107.53222656 51.75982666 C107.58246848 45.93490398 107.63814051 40.1100335 107.69335938 34.28515625 C107.80089586 22.85681378 107.90184909 11.42842694 108 0 C121.86 0 135.72 0 150 0 C150 52.14 150 104.28 150 158 C136.14 158 122.28 158 108 158 C107.67 152.72 107.34 147.44 107 142 C106.0925 143.010625 105.185 144.02125 104.25 145.0625 C92.85193713 156.3013085 78.10049027 160.30767383 62.5 160.5 C45.00939373 160.31942896 28.94437623 154.74123235 16.31640625 142.34765625 C4.33519431 129.12164306 -0.1790544 112.18220338 -0.11352539 94.68017578 C-0.11367142 93.65517471 -0.11381744 92.63017365 -0.1139679 91.57411194 C-0.11327316 88.19782367 -0.10550129 84.82159109 -0.09765625 81.4453125 C-0.09579051 79.09976227 -0.09436734 76.75421165 -0.09336853 74.40866089 C-0.08955562 68.24376342 -0.0797358 62.07888961 -0.06866455 55.91400146 C-0.05842407 49.61975423 -0.05386526 43.32550317 -0.04882812 37.03125 C-0.03811243 24.68748795 -0.02052555 12.34374965 0 0 Z " fill="#1B323A" transform="translate(239,255)"/>
<path d="M0 0 C2.58025035 2.1517955 4.78595275 4.48077326 7 7 C7.845625 7.78375 8.69125 8.5675 9.5625 9.375 C21.5718515 22.30814776 25.35975167 39.57854979 25.22705078 56.7956543 C25.22734283 57.81163193 25.22763489 58.82760956 25.22793579 59.87437439 C25.22655626 63.19107987 25.21106057 66.50755312 25.1953125 69.82421875 C25.19157747 72.14020159 25.18873281 74.45618603 25.18673706 76.77217102 C25.17913922 82.83674564 25.15952411 88.90122286 25.1373291 94.96575928 C25.11678738 101.16661258 25.10771761 107.36748178 25.09765625 113.56835938 C25.07627431 125.71228903 25.04112387 137.85612114 25 150 C11.47 150 -2.06 150 -16 150 C-16.03738281 143.50957031 -16.07476563 137.01914062 -16.11328125 130.33203125 C-16.14358867 126.19854212 -16.1747547 122.06509461 -16.20898438 117.93164062 C-16.26312896 111.38356733 -16.31424547 104.83557635 -16.34643555 98.28735352 C-16.37261367 93.0028007 -16.41311691 87.71852732 -16.46318626 82.43414879 C-16.47975744 80.42697334 -16.49133197 78.41974966 -16.49761391 76.41251564 C-16.44413012 53.51686967 -16.44413012 53.51686967 -27.69921875 34.22265625 C-34.52615852 27.94800824 -42.46133074 25.61276496 -51.6640625 25.7890625 C-61.970976 26.71978713 -69.0164143 30.0164143 -76.25 37.25 C-82.05809012 46.37699876 -83.13314687 55.74208425 -83.20532227 66.33178711 C-83.21522186 67.23989136 -83.22512146 68.14799561 -83.23532104 69.08361816 C-83.26673641 72.06483413 -83.291614 75.04606598 -83.31640625 78.02734375 C-83.33699304 80.10242613 -83.35798996 82.17750447 -83.37937927 84.25257874 C-83.43442179 89.69899214 -83.48390927 95.14544228 -83.53222656 100.59191895 C-83.59143277 107.13492068 -83.65756218 113.67785569 -83.72252655 120.22080231 C-83.82031168 130.14716059 -83.90932118 140.0735628 -84 150 C-97.53 150 -111.06 150 -125 150 C-125 97.86 -125 45.72 -125 -8 C-111.47 -8 -97.94 -8 -84 -8 C-83.505 -0.08 -83.505 -0.08 -83 8 C-82.05125 6.96875 -81.1025 5.9375 -80.125 4.875 C-59.8480786 -15.19915219 -23.17406041 -14.88242411 0 0 Z " fill="#1B3239" transform="translate(537,263)"/>
<path d="M0 0 C16.5564313 11.6164559 26.53519098 29.87291917 30.18359375 49.60546875 C33.34628909 69.53461406 29.39581839 88.66377985 20.390625 106.6484375 C19.730625 107.3084375 19.070625 107.9684375 18.390625 108.6484375 C13.8374111 108.1362798 11.22890698 105.00670856 8.078125 101.9609375 C6.92272379 100.86759192 5.76648082 99.77513515 4.609375 98.68359375 C4.05636719 98.15910645 3.50335937 97.63461914 2.93359375 97.09423828 C0.17262602 94.50714162 -2.70903168 92.07663191 -5.609375 89.6484375 C-4.99837195 85.73801798 -3.77737399 82.27263494 -2.328125 78.61328125 C1.73350679 67.51001609 0.02511148 54.25717352 -4.609375 43.6484375 C-11.85363347 29.7101174 -21.53762639 22.57791742 -35.76171875 16.76953125 C-46.69806089 13.34743732 -59.3075274 15.19216755 -69.609375 19.6484375 C-82.07371348 26.18816834 -92.01983525 36.01642049 -96.484375 49.6484375 C-99.88025132 63.0421112 -99.00320186 75.64750511 -92.2890625 87.87109375 C-85.33126626 99.37572893 -75.48696577 107.87523548 -62.48828125 112 C-49.48863641 114.92800684 -37.92428695 113.209516 -25.609375 108.6484375 C-20.58110266 114.29055088 -15.55862619 119.93680165 -10.609375 125.6484375 C-9.784375 126.5765625 -8.959375 127.5046875 -8.109375 128.4609375 C-7.614375 129.1828125 -7.119375 129.9046875 -6.609375 130.6484375 C-7.609375 133.6484375 -7.609375 133.6484375 -10.93359375 135.5859375 C-32.08696572 145.88036488 -53.42740248 147.73759854 -75.96875 140.58203125 C-88.11313237 136.26307836 -97.35032673 129.47720297 -106.609375 120.6484375 C-107.22425781 120.11992187 -107.83914063 119.59140625 -108.47265625 119.046875 C-122.10172018 106.82771423 -128.84749519 86.45750905 -129.828125 68.68359375 C-130.49265179 46.55787222 -123.25385437 25.22857449 -108.00708008 8.95043945 C-78.35181246 -21.38644324 -34.18517687 -22.74585298 0 0 Z " fill="#1B3239" transform="translate(767.609375,268.3515625)"/>
<path d="M0 0 C13.53 0 27.06 0 41 0 C41.09055231 19.41162858 41.16412796 38.82308419 41.20724869 58.23487091 C41.22780913 67.24959413 41.25580389 76.26417609 41.30175781 85.27880859 C41.34182645 93.14274272 41.36748008 101.00657446 41.37635398 108.87060785 C41.3815351 113.0284459 41.3935738 117.18599121 41.42292023 121.34373474 C41.45040731 125.2704834 41.45837915 129.1968234 41.45243073 133.12365913 C41.4535163 134.55213721 41.46126975 135.98063136 41.4768219 137.40902519 C41.67602791 156.67752515 36.72983414 172.48817692 23.41796875 186.6875 C9.26521092 199.91051462 -10.15875392 201.68667073 -28.52636719 201.140625 C-37.46659596 200.6323767 -46.14521623 198.30970437 -54 194 C-54.88300781 193.51789063 -55.76601562 193.03578125 -56.67578125 192.5390625 C-63.74688477 188.37268615 -68.9335438 183.43050209 -74 177 C-74.49242188 176.38769531 -74.98484375 175.77539062 -75.4921875 175.14453125 C-83.43882028 163.9649516 -84.17556027 150.19103567 -85 137 C-71.14 137 -57.28 137 -43 137 C-42.34 140.96 -41.68 144.92 -41 149 C-38.19396986 155.9273869 -35.59549784 159.22965694 -28.68359375 162.1875 C-22.7743689 163.97661029 -17.40712724 163.89301477 -11.6875 161.5 C-6.68858526 158.61173815 -4.00358303 154.35651061 -2.36618996 148.88020515 C-0.82217196 141.55216086 -0.6937346 134.39146089 -0.68115234 126.92138672 C-0.67183502 125.530761 -0.66166371 124.14014078 -0.65071106 122.74952698 C-0.62360012 119.00438241 -0.60831832 115.25927504 -0.59528303 111.51405859 C-0.57956898 107.5889294 -0.5528055 103.66387529 -0.5272522 99.73880005 C-0.48061003 92.31951636 -0.44379582 84.90021831 -0.41057932 77.48086369 C-0.37225455 69.02850901 -0.32287178 60.57623 -0.27259517 52.12393928 C-0.16949207 34.74934197 -0.08162127 17.37471242 0 0 Z " fill="#1C3339" transform="translate(180,214)"/>
<path d="M0 0 C1.64685536 1.38820412 3.24922704 2.82894779 4.83984375 4.28125 C5.16984375 -0.33875 5.49984375 -4.95875 5.83984375 -9.71875 C14.74984375 -9.71875 23.65984375 -9.71875 32.83984375 -9.71875 C32.83984375 31.20125 32.83984375 72.12125 32.83984375 114.28125 C23.92984375 114.28125 15.01984375 114.28125 5.83984375 114.28125 C5.50984375 109.66125 5.17984375 105.04125 4.83984375 100.28125 C3.76734375 101.3125 2.69484375 102.34375 1.58984375 103.40625 C-11.50288311 114.81331714 -27.03415472 117.3945181 -43.80712891 116.49267578 C-56.54290054 115.34833274 -69.46956252 108.5991902 -78.16015625 99.28125 C-83.10702088 93.15705224 -87.1184491 86.53939257 -90.16015625 79.28125 C-90.55460938 78.34796875 -90.9490625 77.4146875 -91.35546875 76.453125 C-94.20337442 68.36746276 -94.54641392 60.67332728 -94.59765625 52.15625 C-94.60772705 51.07214844 -94.61779785 49.98804688 -94.62817383 48.87109375 C-94.4403824 31.29061945 -88.2190684 16.24506334 -75.84765625 3.83984375 C-55.37661402 -15.64930256 -22.31094741 -17.75192922 0 0 Z M-57.890625 24.7890625 C-65.35488047 32.98561153 -67.66336202 43.56167177 -67.40625 54.390625 C-66.40942887 66.09931766 -61.9482049 76.60546469 -53.26171875 84.6796875 C-44.71083589 91.19615957 -35.83394113 94.24920466 -25.15625 92.90234375 C-14.65594725 90.77009836 -6.88768281 85.31893406 -0.62890625 76.68359375 C5.61871861 66.46473925 7.38551463 55.04384005 5.30859375 43.26953125 C3.83452785 37.52548099 1.68229529 32.47607523 -1.16015625 27.28125 C-1.82015625 27.28125 -2.48015625 27.28125 -3.16015625 27.28125 C-3.41667969 26.683125 -3.67320312 26.085 -3.9375 25.46875 C-7.41651096 19.24432144 -15.56348501 15.33804733 -22.16015625 13.28125 C-36.44974886 10.44814698 -47.49154146 15.04491356 -57.890625 24.7890625 Z " fill="#1B3239" transform="translate(320.16015625,122.71875)"/>
<path d="M0 0 C1.12019531 -0.00128906 2.24039062 -0.00257812 3.39453125 -0.00390625 C4.57402344 -0.00003906 5.75351562 0.00382812 6.96875 0.0078125 C8.73798828 0.00201172 8.73798828 0.00201172 10.54296875 -0.00390625 C12.22326172 -0.00197266 12.22326172 -0.00197266 13.9375 0 C14.97326172 0.00112793 16.00902344 0.00225586 17.07617188 0.00341797 C19.46875 0.1328125 19.46875 0.1328125 20.46875 1.1328125 C20.59398079 3.96241968 20.65484228 6.76880587 20.67407227 9.59985352 C20.68397186 10.48757446 20.69387146 11.37529541 20.70407104 12.28991699 C20.73578484 15.23882332 20.76048234 18.18774579 20.78515625 21.13671875 C20.80571726 23.1755364 20.82671349 25.21434971 20.84812927 27.25315857 C20.9034381 32.63061005 20.95280838 38.00810056 21.00097656 43.38562012 C21.05112742 48.86844371 21.10684689 54.35121034 21.16210938 59.83398438 C21.26979865 70.6002118 21.37121954 81.3664886 21.46875 92.1328125 C23.20890597 90.08121245 24.9483884 88.02904756 26.6875 85.9765625 C27.17444336 85.40260742 27.66138672 84.82865234 28.16308594 84.23730469 C31.13350328 80.73042401 34.0687317 77.19840877 36.96875 73.6328125 C40.71004717 69.03636169 44.52433018 64.50782002 48.36303711 59.99291992 C52.20125708 55.47039242 55.95870495 50.8875336 59.69140625 46.27734375 C61.46875 44.1328125 61.46875 44.1328125 63.46875 42.1328125 C66.19360728 41.95763503 68.81534362 41.90132117 71.5390625 41.9375 C72.33529022 41.9403299 73.13151794 41.94315979 73.95187378 41.94607544 C76.49931763 41.9572861 79.04641211 41.98239188 81.59375 42.0078125 C83.31900535 42.01784117 85.04426619 42.02696722 86.76953125 42.03515625 C91.00273914 42.05722828 95.2356853 42.09176383 99.46875 42.1328125 C99.46875 46.3988376 96.96665958 48.16078236 94.15625 51.0703125 C93.04264802 52.24839483 91.92937337 53.42678664 90.81640625 54.60546875 C90.25195801 55.19859863 89.68750977 55.79172852 89.10595703 56.40283203 C86.73508147 58.90805485 84.41587113 61.45728601 82.09375 64.0078125 C77.83373423 68.66296017 73.53257031 73.27753324 69.21875 77.8828125 C65.13712662 82.24314903 61.0958004 86.62078993 57.19921875 91.1484375 C53.3659246 95.54417887 49.40248905 99.82706995 45.46875 104.1328125 C49.12398683 109.45901474 53.17834893 113.9483775 57.78125 118.4453125 C62.70398351 123.25651424 67.13634913 128.23967886 71.41796875 133.640625 C73.94829298 136.71557139 76.71023742 139.46134194 79.5625 142.234375 C83.28796609 145.94457279 86.67623153 149.96741425 90.02734375 154.015625 C92.47039565 156.94728728 94.85916843 159.55485138 97.84375 161.9453125 C98.71 162.6671875 99.57625 163.3890625 100.46875 164.1328125 C100.46875 164.7928125 100.46875 165.4528125 100.46875 166.1328125 C95.32778245 166.33146771 90.18907436 166.47614476 85.04516602 166.57226562 C83.29802515 166.61235175 81.55115026 166.66683993 79.80493164 166.73632812 C65.30999796 167.29843562 65.30999796 167.29843562 60.89453125 164.50317383 C59.12355761 162.47225615 57.80282611 160.46778595 56.46875 158.1328125 C54.84907183 156.35711029 53.22463282 154.58572943 51.59375 152.8203125 C47.47336265 148.30780369 43.59532244 143.65091389 39.76171875 138.89453125 C36.62048745 135.11114023 33.28891654 131.5198226 29.92578125 127.93359375 C26.91029155 124.49622314 24.21231158 120.7908946 21.46875 117.1328125 C21.13875 133.3028125 20.80875 149.4728125 20.46875 166.1328125 C11.55875 166.1328125 2.64875 166.1328125 -6.53125 166.1328125 C-6.55436691 144.63675698 -6.57222815 123.14070444 -6.58306217 101.64463902 C-6.58822557 91.66437419 -6.5952691 81.68411721 -6.60668945 71.70385742 C-6.61663496 63.0083511 -6.62310311 54.31285045 -6.62533849 45.6173386 C-6.62664583 41.01017519 -6.62973312 36.40302804 -6.63698006 31.79586983 C-6.64373817 27.46462658 -6.64586739 23.13340638 -6.64435768 18.80215836 C-6.6446341 17.20775795 -6.64664047 15.61335682 -6.65045547 14.01896095 C-6.65538947 11.85164679 -6.6542494 9.68442107 -6.65150452 7.5171051 C-6.65242631 6.30126016 -6.6533481 5.08541521 -6.65429783 3.83272648 C-6.43593736 -0.95853632 -4.26620657 0.00464584 0 0 Z " fill="#1B3239" transform="translate(474.53125,70.8671875)"/>
<path d="M0 0 C0 14.19 0 28.38 0 43 C-8.415 43.495 -8.415 43.495 -17 44 C-27.7002667 45.8268748 -34.69522494 47.56437722 -41.6796875 56.06640625 C-46.36684001 62.93072724 -47.14916454 70.64473172 -47.20532227 78.71582031 C-47.21522186 79.59422577 -47.22512146 80.47263123 -47.23532104 81.37765503 C-47.26687961 84.27778438 -47.2916712 87.17793009 -47.31640625 90.078125 C-47.33698065 92.09023461 -47.35797725 94.10233994 -47.37937927 96.11444092 C-47.43454976 101.40800512 -47.48398121 106.70160801 -47.53222656 111.99523926 C-47.59131484 118.3479434 -47.65751519 124.7005769 -47.72252655 131.05322266 C-47.82047287 140.70210527 -47.90937222 150.35103337 -48 160 C-61.86 160 -75.72 160 -90 160 C-90 107.86 -90 55.72 -90 2 C-76.14 2 -62.28 2 -48 2 C-47.505 11.405 -47.505 11.405 -47 21 C-44.525 18.525 -44.525 18.525 -42 16 C-29.60701799 4.11079775 -17.17973505 0 0 0 Z " fill="#1B323A" transform="translate(905,253)"/>
<path d="M0 0 C9.30378649 8.645943 10.63762207 17.08896485 11.6875 29.6875 C2.7775 29.6875 -6.1325 29.6875 -15.3125 29.6875 C-16.6325 26.7175 -17.9525 23.7475 -19.3125 20.6875 C-24.83741801 15.16258199 -29.45246937 13.4003885 -37.1875 13.375 C-44.09419026 13.48336857 -48.21016768 14.23829027 -53.6875 18.5625 C-55.63228764 21.10568384 -56.23612411 22.47971278 -56.3125 25.6875 C-54.48690732 30.94950243 -52.02785872 32.91055664 -47.3125 35.6875 C-44.673459 36.79145614 -41.98060751 37.65198524 -39.25 38.5 C-38.47849609 38.75007813 -37.70699219 39.00015625 -36.91210938 39.2578125 C-33.47581256 40.37124946 -30.03235754 41.46121485 -26.58642578 42.54443359 C2.30953607 51.65687423 2.30953607 51.65687423 10.00390625 63.7578125 C14.47708557 72.953547 14.19338773 85.1150563 11.1875 94.75 C6.55815782 105.26544737 -2.21026751 109.91788132 -12.42016602 113.99682617 C-27.82433144 119.619118 -46.53499214 118.55988612 -61.3125 111.6875 C-64.44880857 110.1888919 -67.40352205 108.58854261 -70.3125 106.6875 C-71.17875 106.130625 -72.045 105.57375 -72.9375 105 C-81.75802907 96.41159012 -84.96742283 87.79319453 -86.3125 75.6875 C-77.0725 75.6875 -67.8325 75.6875 -58.3125 75.6875 C-56.9925 78.6575 -55.6725 81.6275 -54.3125 84.6875 C-48.10096181 91.01406667 -42.90184723 92.97008405 -33.9375 93.0625 C-26.76990977 92.97096889 -22.2181066 91.99153213 -16.6640625 87.29296875 C-14.33117612 84.52182337 -14.2236008 81.175084 -14.3125 77.6875 C-15.6136845 73.87069212 -17.01627679 72.86159928 -20.49609375 70.81640625 C-27.41197435 67.4649061 -35.04695832 65.8043301 -42.45117188 63.84106445 C-56.38810924 60.12058203 -71.73643945 55.31725578 -80.2109375 42.76953125 C-85.24123826 33.26190606 -85.39497166 23.52074901 -82.41796875 13.4296875 C-80.54894423 8.79345001 -77.70720589 5.30899208 -74.3125 1.6875 C-73.78785156 1.12160156 -73.26320313 0.55570313 -72.72265625 -0.02734375 C-54.68559605 -17.35879768 -18.39839517 -15.04077371 0 0 Z " fill="#1B3239" transform="translate(447.3125,122.3125)"/>
<path d="M0 0 C3.03895875 1.30792005 5.94500152 2.79852939 8.88305664 4.3190918 C19.95878613 10.18337671 19.95878613 10.18337671 32.0546875 9.94921875 C35.6830734 8.61829886 39.03439252 6.95118334 42.44140625 5.13671875 C46.97573395 2.74532674 50.9355443 2.18711038 56 3 C59.87324087 4.33265185 62.45067752 6.03822444 64.52661133 9.67285156 C66.11561595 13.2610794 67.44252639 16.89617507 68.69921875 20.609375 C71.83298641 29.66654134 75.26751955 38.59354793 78.74902344 47.52175903 C80.60638089 52.2866207 82.45410356 57.05520956 84.30078125 61.82421875 C84.68279694 62.81074936 85.06481262 63.79727997 85.45840454 64.81370544 C89.86370463 76.20795024 94.18700157 87.63305997 98.5 99.0625 C98.87275055 100.04955933 99.2455011 101.03661865 99.62954712 102.05358887 C100.68103242 104.83876638 101.73145625 107.62434076 102.78125 110.41015625 C103.09398361 111.2393306 103.40671722 112.06850494 103.72892761 112.92280579 C104.01496353 113.68312607 104.30099945 114.44344635 104.59570312 115.22680664 C104.84421021 115.88685196 105.09271729 116.54689728 105.34875488 117.22694397 C107.68969326 123.60029679 108.5160906 129.69022476 105.61328125 136.02734375 C101.01054851 143.46559948 96.20422102 147.58839154 88.36474609 151.49584961 C87.71844238 151.82002365 87.07213867 152.14419769 86.40625 152.47819519 C84.28149846 153.54206738 82.15258835 154.59730731 80.0234375 155.65234375 C78.53212501 156.39646868 77.04105013 157.14106998 75.55020142 157.88612366 C72.42671609 159.44556877 69.30131372 161.0010762 66.17431641 162.5534668 C62.19438017 164.5293583 58.21789783 166.51207579 54.2426815 168.4974432 C50.42085292 170.40575912 46.59716867 172.31034384 42.7734375 174.21484375 C41.69933184 174.75048604 41.69933184 174.75048604 40.60352707 175.29694939 C33.20893035 178.98171428 25.80422849 182.61666282 18.25721741 185.98272705 C16.09922978 186.95527955 13.97137785 187.97461463 11.84765625 189.01953125 C4.01590982 192.7860361 -3.12595331 195.89119028 -12 194 C-19.67884663 190.83359747 -24.86989551 184.89259962 -28.51757812 177.56420898 C-28.83214462 176.93901871 -29.14671112 176.31382843 -29.47080994 175.66969299 C-30.50072109 173.61654197 -31.51615643 171.55660558 -32.53125 169.49609375 C-33.25123229 168.05187129 -33.97198962 166.60803497 -34.69348145 165.16456604 C-36.20236721 162.14064048 -37.70460203 159.11353829 -39.20166016 156.08374023 C-41.10506878 152.23188089 -43.02045062 148.38614353 -44.9404068 144.54251003 C-46.42977265 141.55930981 -47.91476421 138.57394987 -49.39830017 135.58784676 C-50.10227811 134.17110909 -50.80705887 132.75477002 -51.51271057 131.33886528 C-55.20605871 123.91789775 -58.70092538 116.47616855 -61.82519531 108.79289246 C-63.76054564 104.1919359 -66.00744837 99.75774476 -68.265625 95.30859375 C-68.74449158 94.35606216 -69.22335815 93.40353058 -69.71673584 92.4221344 C-71.22395511 89.4252886 -72.73658013 86.43121856 -74.25 83.4375 C-75.77694358 80.41127487 -77.30268282 77.38445705 -78.82611084 74.35646057 C-79.76875884 72.48338482 -80.71354358 70.61138253 -81.66070557 68.74058533 C-82.08494812 67.89863113 -82.50919067 67.05667694 -82.94628906 66.18920898 C-83.31981506 65.45041 -83.69334106 64.71161102 -84.07818604 63.95042419 C-86.88115051 58.01975928 -87.08841549 50.95370204 -85.3515625 44.64453125 C-81.69636344 36.5687282 -75.21510515 32.80508976 -67.32568359 29.46704102 C-63.71835631 27.87576003 -60.20275812 26.13352415 -56.6875 24.3515625 C-50.96929771 21.47262716 -45.23179314 18.6393921 -39.46484375 15.859375 C-38.76218887 15.52034149 -38.059534 15.18130798 -37.33558655 14.83200073 C-34.47405898 13.45219622 -31.61179121 12.07394854 -28.74829102 10.69824219 C-26.61106265 9.67084342 -24.47536717 8.64031193 -22.33984375 7.609375 C-21.7043309 7.30513611 -21.06881805 7.00089722 -20.41404724 6.68743896 C-17.28830764 5.1761833 -14.255384 3.58288723 -11.27099609 1.81347656 C-7.2918959 -0.39258078 -4.38295177 -0.99412933 0 0 Z M-15.50390625 15.140625 C-16.14182602 15.46407898 -16.77974579 15.78753296 -17.43699646 16.12078857 C-19.48177525 17.15819054 -21.52243764 18.20335722 -23.5625 19.25 C-38.83817073 27.07058506 -38.83817073 27.07058506 -46.77172852 30.10058594 C-50.55348269 31.62704396 -54.10740616 33.5556673 -57.6875 35.5 C-58.39455078 35.87769531 -59.10160156 36.25539063 -59.83007812 36.64453125 C-61.89336981 37.75129232 -63.9480627 38.87234751 -66 40 C-66.99422974 40.54092285 -66.99422974 40.54092285 -68.00854492 41.09277344 C-71.96846635 43.28835318 -74.33060571 44.67921478 -76 49 C-76.4368249 54.96578008 -75.632329 58.75977198 -72.6875 64 C-71.94751254 65.39355302 -71.21212664 66.78955572 -70.48046875 68.1875 C-70.08134277 68.94804688 -69.6822168 69.70859375 -69.27099609 70.4921875 C-66.38390578 76.18872835 -63.82704677 82.04710123 -61.2097168 87.87109375 C-58.35560154 94.17484484 -55.34109682 100.37832872 -52.22973633 106.55749512 C-49.56052103 111.86266156 -46.94068069 117.1903473 -44.34375 122.53125 C-43.94748413 123.34601807 -43.55121826 124.16078613 -43.14294434 125.00024414 C-41.52150501 128.3360851 -39.90165759 131.67269805 -38.28173828 135.00927734 C-37.07397852 137.496127 -35.86539612 139.98257414 -34.65625 142.46875 C-34.26525116 143.27298401 -33.87425232 144.07721802 -33.47140503 144.90582275 C-30.57502786 150.85073597 -27.6315881 156.77099229 -24.63562012 162.66638184 C-22.54723832 166.80272155 -20.68230663 170.98641199 -18.875 175.25 C-16.67336496 180.013323 -15.14200511 183.08435104 -10 185 C-0.57874662 186.3735717 6.64333549 181.72281922 14.734375 177.51953125 C16.25889367 176.74504182 17.78432264 175.97234189 19.31060791 175.20133972 C23.31827666 173.17191382 27.31517707 171.12218064 31.30957031 169.06677246 C37.68388469 165.790658 44.07353496 162.54462408 50.46430206 159.30075645 C52.67486313 158.17484266 54.88042518 157.03961546 57.08538818 155.90278625 C64.34969684 152.18059276 71.54685323 148.82793362 79.23370361 146.05155945 C85.2716902 143.75632389 91.95029422 140.96681566 95 135 C96.60301065 125.55067406 92.76209404 117.88872144 88 110 C87.00016802 108.11498345 86.02183446 106.21844564 85.0625 104.3125 C84.57910156 103.35988281 84.09570312 102.40726562 83.59765625 101.42578125 C82.34961979 98.74967372 81.24565499 96.10723455 80.18041992 93.35864258 C78.19957006 88.38246468 75.93516903 83.61126824 73.515625 78.8359375 C73.09633728 78.00019196 72.67704956 77.16444641 72.24505615 76.30337524 C70.917166 73.65865505 69.58373955 71.0167743 68.25 68.375 C66.93642905 65.76290639 65.62398287 63.15025071 64.31188965 60.53741455 C63.45242014 58.82911874 62.59054732 57.12202982 61.72619629 55.41619873 C59.6749107 51.3641562 57.65669246 47.30297231 55.71679688 43.19628906 C55.35970642 42.45061676 55.00261597 41.70494446 54.63470459 40.93667603 C53.96946844 39.54329952 53.31530851 38.14455989 52.67437744 36.73983765 C51.02982102 33.25058094 51.02982102 33.25058094 48.04760742 30.96533203 C45.49223279 31.00859699 43.92562424 31.64328303 41.62890625 32.765625 C40.80712891 33.16136719 39.98535156 33.55710937 39.13867188 33.96484375 C38.28853516 34.38894531 37.43839844 34.81304687 36.5625 35.25 C35.71623047 35.65863281 34.86996094 36.06726563 33.99804688 36.48828125 C30.62701352 38.13024111 27.36348312 39.77130853 24.1875 41.76953125 C21.75128507 43.13990215 20.21459856 43.43267026 17.4375 43.4375 C16.32181641 43.46650391 16.32181641 43.46650391 15.18359375 43.49609375 C12.0284758 42.77927804 11.01807464 41.52958663 9 39 C7.13736371 35.70884148 5.59001107 32.27221137 4 28.84375 C2.08862751 24.84181386 0.28164885 22.06103381 -3 19 C-4.24255677 16.71888832 -5.06336247 14.43525757 -6 12 C-9.76254346 12 -12.24612306 13.45357169 -15.50390625 15.140625 Z M6 15 C6.66 16.32 7.32 17.64 8 19 C8.99 18.67 9.98 18.34 11 18 C11 17.34 11 16.68 11 16 C9.35 15.67 7.7 15.34 6 15 Z " fill="#1B3339" transform="translate(684,43)"/>
<path d="M0 0 C13.53 0 27.06 0 41 0 C41 52.14 41 104.28 41 158 C27.47 158 13.94 158 0 158 C0 105.86 0 53.72 0 0 Z " fill="#1C323A" transform="translate(581,255)"/>
<path d="M0 0 C3.39452238 3.06635103 6.2305486 6.36616131 9 10 C9.51433594 10.64839844 10.02867187 11.29679687 10.55859375 11.96484375 C16.50214678 20.30698198 17.98327804 31.46153503 16.68359375 41.42578125 C15.81539162 46.58024255 14.40622866 50.72817148 11.70703125 55.2109375 C10.77578283 57.56735615 11.17433386 58.63092995 12 61 C14.06091467 62.97859568 16.09973647 64.77092416 18.3125 66.5625 C19.59395151 67.62840327 20.87387192 68.69614964 22.15234375 69.765625 C22.79800293 70.30380859 23.44366211 70.84199219 24.10888672 71.39648438 C26.9350588 73.79285647 29.65944008 76.2922598 32.375 78.8125 C35.54882852 81.74951407 38.73118861 84.66837532 42 87.5 C42.91265625 88.304375 42.91265625 88.304375 43.84375 89.125 C45.05432084 90.1776703 46.27018011 91.22456529 47.50390625 92.25 C49.18507942 93.64899044 50.84258076 95.07299301 52.5 96.5 C53.04140625 96.93892578 53.5828125 97.37785156 54.140625 97.83007812 C57.05677515 100.3817095 57.96262364 101.73579762 58.51171875 105.6171875 C57.99870331 109.00857203 57.65179765 110.23267041 55.3125 112.625 C54.76078125 113.19605469 54.2090625 113.76710938 53.640625 114.35546875 C53.09921875 114.89816406 52.5578125 115.44085938 52 116 C51.195625 116.969375 50.39125 117.93875 49.5625 118.9375 C47 121 47 121 43.5625 121.625 C35.95827571 120.29092556 32.2544551 113.95165183 27.69140625 108.23046875 C24.61927843 104.46520311 21.2791008 100.962676 17.9375 97.4375 C13.27926174 92.51289971 8.84690544 87.52467554 4.6875 82.1640625 C2.23140835 79.01435238 -0.37953588 76.01353374 -3 73 C-3.8971875 73.3609375 -4.794375 73.721875 -5.71875 74.09375 C-18.19490302 78.84310815 -30.40413568 80.35848109 -43.19140625 75.37890625 C-54.50844751 69.82269545 -62.45983354 61.44806515 -67.5 49.875 C-70.73052187 39.86756115 -70.64837556 26.52670609 -66 17 C-63.91376738 13.44208391 -61.59033169 10.20681982 -59 7 C-58.47535156 6.34902344 -57.95070313 5.69804687 -57.41015625 5.02734375 C-42.60080894 -11.44760253 -17.60914629 -11.5337535 0 0 Z M-49 9 C-54.81061392 15.09446575 -56.51437845 22.69878053 -57.4375 30.875 C-56.95301251 40.70605874 -53.16333618 50.23242825 -46 57 C-36.20596245 64.51501261 -27.31103985 67.15952817 -15 66 C-8.53048941 64.49640772 -3.0459431 62.47392302 1 57 C6.18070849 47.89675507 8.9248069 39.5396581 6.24609375 29.046875 C2.63710552 18.68695585 -3.1360829 10.9906755 -12.875 5.6875 C-24.21035348 0.46786095 -39.26144499 0.44907365 -49 9 Z " fill="#1C333A" transform="translate(744,297)"/>
<path d="M0 0 C6.05338127 6.87140576 6.63548863 12.49376479 6.515625 21.43359375 C6.12181502 27.62095446 4.15080846 31.08926389 -0.375 35.375 C-6.77543245 40.55353171 -12.65211998 42.24984003 -20.8828125 41.96484375 C-28.9128701 40.99184234 -34.19253704 37.9133807 -39.3125 31.72265625 C-43.63907993 25.12216357 -43.36504795 18.2865037 -42.6875 10.625 C-41.02497719 4.03804254 -36.35597356 -0.82484874 -30.6875 -4.375 C-20.60192293 -8.34810612 -8.1433993 -7.1964924 0 0 Z " fill="#16A249" transform="translate(619.6875,196.375)"/>
<path d="M0 0 C5.27367219 4.00799086 6.75862855 9.88109182 8.82421875 15.984375 C11.95798641 25.04154134 15.39251955 33.96854793 18.87402344 42.89675903 C20.73138089 47.6616207 22.57910356 52.43020956 24.42578125 57.19921875 C24.80779694 58.18574936 25.18981262 59.17227997 25.58340454 60.18870544 C29.98870463 71.58295024 34.31200157 83.00805997 38.625 94.4375 C38.99775055 95.42455933 39.3705011 96.41161865 39.75454712 97.42858887 C40.80603242 100.21376638 41.85645625 102.99934076 42.90625 105.78515625 C43.21898361 106.6143306 43.53171722 107.44350494 43.85392761 108.29780579 C44.13996353 109.05812607 44.42599945 109.81844635 44.72070312 110.60180664 C44.96921021 111.26185196 45.21771729 111.92189728 45.47375488 112.60194397 C47.7454049 118.78665484 48.40463712 125.4085685 45.75 131.5625 C45.21375 132.160625 44.6775 132.75875 44.125 133.375 C43.465 133.375 42.805 133.375 42.125 133.375 C42.28162109 132.08142578 42.28162109 132.08142578 42.44140625 130.76171875 C43.30771098 117.73964604 38.18293866 107.7921252 31.578125 96.80078125 C29.60863879 93.51300992 27.90213334 90.11350071 26.1875 86.6875 C25.85298828 86.03072266 25.51847656 85.37394531 25.17382812 84.69726562 C23.37321663 81.1064508 21.75833434 77.50560555 20.31640625 73.75561523 C18.16810454 68.34667287 15.65277789 63.17517409 13.02734375 57.984375 C12.55180557 57.03612854 12.0762674 56.08788208 11.58631897 55.11090088 C10.08216639 52.11368008 8.57245332 49.11930194 7.0625 46.125 C6.04585087 44.10174993 5.02957159 42.07831397 4.01367188 40.0546875 C1.75114293 35.54938117 -0.51203248 31.04441544 -2.78779602 26.54577637 C-3.73547464 24.65358467 -4.65311108 22.74640586 -5.56542969 20.83691406 C-7.11554569 17.92278845 -7.97627953 17.39488697 -11.0625 16.375 C-12.36380859 15.91867188 -12.36380859 15.91867188 -13.69140625 15.453125 C-14.74199219 15.09734375 -15.79257812 14.7415625 -16.875 14.375 C-19.0189296 13.58114292 -21.15655411 12.77157693 -23.29418945 11.9609375 C-26.48292983 10.75249842 -29.67915984 9.56451867 -32.875 8.375 C-32.875 7.715 -32.875 7.055 -32.875 6.375 C-29.73997312 5.01520752 -26.59058689 3.69230941 -23.4375 2.375 C-22.55900391 1.9934375 -21.68050781 1.611875 -20.77539062 1.21875 C-13.82990973 -1.65170705 -7.04845244 -3.52468445 0 0 Z " fill="#16A048" transform="translate(743.875,47.625)"/>
<path d="M0 0 C0.495 2.475 0.495 2.475 1 5 C-6.77947565 10.18972915 -15.13239246 14.17683813 -23.5 18.3125 C-24.96633416 19.0406365 -26.43248122 19.7691499 -27.8984375 20.49804688 C-30.81551154 21.94793789 -33.73356532 23.39582858 -36.65234375 24.84228516 C-42.21964417 27.60295196 -47.77701814 30.38340196 -53.33398438 33.16479492 C-53.92808105 33.46179291 -54.52217773 33.75879089 -55.13427734 34.06478882 C-56.46662716 34.7326418 -57.79752454 35.40339558 -59.12744141 36.07608032 C-59.83239746 36.43165009 -60.53735352 36.78721985 -61.26367188 37.15356445 C-62.22170715 37.63851128 -62.22170715 37.63851128 -63.19909668 38.133255 C-67.50512006 40.20567287 -71.21763496 41.28131559 -76 41 C-76.33 39.35 -76.66 37.7 -77 36 C-63.55363881 28.30705918 -49.8191056 21.36632628 -35.875 14.625 C-32.86796091 13.16503268 -29.86160457 11.70366583 -26.85525513 10.24227905 C-25.00595044 9.34399128 -23.15611354 8.44679797 -21.30563354 7.55093384 C-20.04228683 6.93911758 -20.04228683 6.93911758 -18.75341797 6.31494141 C-17.95192322 5.92783997 -17.15042847 5.54073853 -16.324646 5.14190674 C-14.78281301 4.38453143 -13.24920882 3.61015411 -11.72467041 2.81854248 C-7.55803164 0.65518495 -4.74033542 -0.47403354 0 0 Z " fill="#1B393A" transform="translate(739,129)"/>
<path d="M0 0 C0 1.98 0 3.96 0 6 C-22 17 -22 17 -44 28 C-44.66725098 28.33942627 -45.33450195 28.67885254 -46.02197266 29.02856445 C-49.59117346 30.83645491 -53.12478264 32.52954643 -56.875 33.9375 C-61.33157559 35.66107546 -65.48890073 37.74928106 -69.67578125 40.046875 C-72.30416496 41.12473319 -74.18482687 41.25196042 -77 41 C-78 40 -78 40 -78.0625 37.4375 C-78.041875 36.633125 -78.02125 35.82875 -78 35 C-72.86437864 32.07093839 -67.79803268 29.19850716 -62.25 27.125 C-58.08826838 25.53432255 -54.21458146 23.57341492 -50.3125 21.4375 C-42.82318572 17.34485551 -35.15895242 13.66454213 -27.44116211 10.02416992 C-23.12060349 7.98329762 -18.81685574 5.93639307 -14.58984375 3.70703125 C-13.95054932 3.37195557 -13.31125488 3.03687988 -12.65258789 2.69165039 C-11.00974169 1.82137738 -9.37554245 0.93483355 -7.7421875 0.046875 C-4.64352931 -1.13608853 -3.12184549 -0.98343851 0 0 Z " fill="#1B393A" transform="translate(727,103)"/>
<path d="M0 0 C2.375 -0.125 2.375 -0.125 5 0 C7 2 7 2 7 6 C0.83519446 9.17111018 -5.34046212 12.32025666 -11.52416992 15.4543457 C-13.62667253 16.52320305 -15.72663522 17.59707186 -17.82397461 18.67602539 C-20.83835342 20.22564573 -23.86139341 21.75704069 -26.88671875 23.28515625 C-28.29167854 24.01473289 -28.29167854 24.01473289 -29.72502136 24.75904846 C-31.04582451 25.41984657 -31.04582451 25.41984657 -32.39331055 26.09399414 C-33.16386276 26.48704239 -33.93441498 26.88009064 -34.72831726 27.28504944 C-37.50283937 28.15825506 -39.23270758 27.77451966 -42 27 C-42.5 24.8125 -42.5 24.8125 -42 22 C-35.39580922 17.30666645 -28.03161721 13.82963571 -20.79882812 10.21411133 C-18.73639979 9.18068531 -16.68073061 8.1345643 -14.625 7.08789062 C-13.30768364 6.42630228 -11.98998854 5.76546741 -10.671875 5.10546875 C-9.7561673 4.63683662 -9.7561673 4.63683662 -8.82196045 4.15873718 C-5.52789961 2.52934754 -3.7773842 2 0 2 C0 1.34 0 0.68 0 0 Z " fill="#1B393A" transform="translate(717,169)"/>
<path d="M0 0 C0.87011719 0.32935547 1.74023438 0.65871094 2.63671875 0.99804688 C4.76093854 1.80338295 6.88175164 2.61661481 9 3.4375 C9 4.0975 9 4.7575 9 5.4375 C5.75991781 7.1445681 2.50656439 8.82461873 -0.75 10.5 C-2.13058594 11.22799805 -2.13058594 11.22799805 -3.5390625 11.97070312 C-4.87324219 12.65229492 -4.87324219 12.65229492 -6.234375 13.34765625 C-7.45979004 13.98392944 -7.45979004 13.98392944 -8.70996094 14.63305664 C-11.33335812 15.55460181 -12.45844329 15.50406759 -15 14.4375 C-19.16488182 9.34600513 -21.71456536 4.00249678 -22 -2.5625 C-15.56159352 -7.12303792 -6.50944363 -2.5247842 0 0 Z " fill="#179E49" transform="translate(714,64.5625)"/>
<path d="M0 0 C9.0850405 5.35906403 14.70555819 13.28233208 17.6875 23.3125 C19.13725743 35.78041391 16.49977328 44.95176008 9 55 C8.01 54.505 8.01 54.505 7 54 C7.33773437 53.50371094 7.67546875 53.00742187 8.0234375 52.49609375 C13.17634425 44.64759127 15.03258043 37.38137099 14 28 C11.29393277 17.49655349 6.30393137 9.64657588 -2.87890625 3.8046875 C-11.99534627 -1.16791615 -21.6736271 -2.06836679 -31.62890625 0.7421875 C-33.77448575 1.44730752 -35.89193159 2.19037952 -38 3 C-38 2.01 -38 1.02 -38 0 C-25.86405017 -5.75943382 -12.05756583 -6.33366427 0 0 Z " fill="#F5F6F6" transform="translate(736,301)"/>
<path d="M0 0 C3.91075925 1.98968453 5.57689098 3.36533646 8 7 C7.75 10.125 7.75 10.125 7 13 C3.0581748 14.9709126 -1.70394278 14.45444893 -6 14 C-9.2730552 12.64319323 -11.50349857 10.49650143 -14 8 C-14.3125 5 -14.3125 5 -14 2 C-9.53678642 -0.97547572 -5.23427681 -0.62063568 0 0 Z " fill="#FFFFFF" transform="translate(726,303)"/>
<path d="M0 0 C2.33944736 0.28730055 4.6739143 0.61936779 7 1 C7.625 2.875 7.625 2.875 8 5 C7.34 5.66 6.68 6.32 6 7 C2.875 6.625 2.875 6.625 0 6 C-0.38218767 4.34385343 -0.71395102 2.67542976 -1 1 C-0.67 0.67 -0.34 0.34 0 0 Z " fill="#FFFFFF" transform="translate(729,318)"/>
<path d="M0 0 C-6.93 2.97 -6.93 2.97 -14 6 C-14.33 5.01 -14.66 4.02 -15 3 C-13.25531628 2.29911844 -11.50398839 1.61475991 -9.75 0.9375 C-8.77546875 0.55464844 -7.8009375 0.17179687 -6.796875 -0.22265625 C-4 -1 -4 -1 0 0 Z " fill="#D2D5D8" transform="translate(713,298)"/>
</svg>
